<?xml version="1.0" encoding="utf-8"?>
<!-- Generator: Adobe Illustrator 16.0.0, SVG Export Plug-In . SVG Version: 6.00 Build 0)  -->
<!DOCTYPE svg PUBLIC "-//W3C//DTD SVG 1.1//EN" "http://www.w3.org/Graphics/SVG/1.1/DTD/svg11.dtd">
<svg version="1.1" id="Layer_1" xmlns="http://www.w3.org/2000/svg" xmlns:xlink="http://www.w3.org/1999/xlink" x="0px" y="0px"
	 width="3000px" height="3000px" viewBox="0 0 3000 3000" enable-background="new 0 0 3000 3000" xml:space="preserve">
<g>
	<g>
		<path fill="#22BCBA" d="M1170.723,1134.145c-58.474-83.679-55.24-158.36,36.021-241.048
			c104.19-94.393,328.041-69.051,418.067,28.637c83.462,90.602,38.577,250.148-6.007,344.209
			c-72.775,153.481-140.118,305.649-197.04,465.96c-87.063,245.3,301.982,349.906,388.191,107.048
			c77-216.928,223.722-429.108,254.819-679.459c31.3-251.944-80.817-510.452-302.35-638.392
			c-265.037-153.075-639.029-95.056-860.322,105.46c-194.381,176.112-227.907,497.712-79.012,710.76
			C970.64,1548.396,1319.812,1347.512,1170.723,1134.145L1170.723,1134.145z"/>
	</g>
</g>
<g>
	<g>
		<path fill="#22BCBA" d="M596.29,1724.905c-72.647,783.792,1286.75,1174.743,1622.484,449.173
			c108.246-233.926-238.735-438.588-347.646-203.161c-91.199,197.154-280.161,203.113-473.998,154.813
			c-217.64-54.25-421.045-155.119-398.268-400.825C1022.819,1466.357,620.017,1468.662,596.29,1724.905L596.29,1724.905z"/>
	</g>
</g>
<path fill="#22BCBA" d="M2331.094,1758.852c-81.988,58.066-195.478,38.7-253.598-43.209c-58.067-81.937-38.78-195.505,43.16-253.611
	c81.984-58.129,195.526-38.781,253.646,43.169C2432.418,1587.176,2413.03,1700.73,2331.094,1758.852z"/>
<path fill="#22BCBA" d="M1317.396,1727.551c-76.986,54.607-183.721,36.44-238.355-40.563
	c-54.594-77.075-36.44-183.756,40.612-238.39c77.026-54.634,183.76-36.427,238.354,40.585
	C1412.629,1566.248,1394.436,1672.942,1317.396,1727.551z"/>
</svg>
