<?xml version="1.0" encoding="utf-8"?>
<!-- Generator: Adobe Illustrator 16.0.0, SVG Export Plug-In . SVG Version: 6.00 Build 0)  -->
<!DOCTYPE svg PUBLIC "-//W3C//DTD SVG 1.1//EN" "http://www.w3.org/Graphics/SVG/1.1/DTD/svg11.dtd">
<svg version="1.1" id="Layer_1" xmlns="http://www.w3.org/2000/svg" xmlns:xlink="http://www.w3.org/1999/xlink" x="0px" y="0px"
	 width="3000px" height="3000px" viewBox="0 0 3000 3000" enable-background="new 0 0 3000 3000" xml:space="preserve">
<path fill="none" d="M1368.161,1214.268c-11.371,4.022-22.515,8.533-33.394,13.53c10.893,4.999,22.009,9.583,33.394,13.61V1214.268z
	"/>
<path fill="none" d="M1368.161,745.159h267.219v193.911c83.137,16.919,160.629,49.339,229.372,94.067
	c24.139-51.507,37.729-108.944,37.729-169.596c0-221.308-179.405-400.71-400.709-400.71s-400.712,179.401-400.712,400.709
	c0,60.654,13.507,118.142,37.628,169.665c68.771-44.767,146.3-77.207,229.474-94.134V745.159z"/>
<linearGradient id="SVGID_1_" gradientUnits="userSpaceOnUse" x1="-1142.9658" y1="-559.874" x2="-704.277" y2="-1319.7054" gradientTransform="matrix(0 1 -1 0 882.5371 2461.7539)">
	<stop  offset="0" style="stop-color:#D1D3D4"/>
	<stop  offset="0.5426" style="stop-color:#E8E9EA"/>
	<stop  offset="1" style="stop-color:#FFFFFF"/>
</linearGradient>
<path fill="url(#SVGID_1_)" d="M1801.941,1128.868c25.264-28.563,46.441-60.795,62.811-95.731
	c-68.743-44.729-146.235-77.148-229.372-94.067v275.199c155.605,55.023,267.101,203.409,267.101,377.866
	c0,141.126-72.966,265.195-183.215,336.587l190.438,190.439c157.273-121.91,258.533-312.633,258.533-527.026
	c0-134.472-39.862-259.615-108.362-364.333c-20.74,31.714-44.083,61.578-69.773,89.231L1801.941,1128.868z"/>
<linearGradient id="SVGID_2_" gradientUnits="userSpaceOnUse" x1="-1324.1724" y1="-752.8428" x2="-1324.1724" y2="-256.1406" gradientTransform="matrix(0 1 -1 0 882.5371 2461.7539)">
	<stop  offset="0" style="stop-color:#FFFFFF"/>
	<stop  offset="1" style="stop-color:#D1D3D4"/>
</linearGradient>
<path fill="url(#SVGID_2_)" d="M1635.38,1516.549v-16.896v-258.359v-27.026V939.069V745.159h-267.219v193.911v275.199v27.14
	c-11.385-4.027-22.501-8.611-33.394-13.61c-86.185,39.57-155.901,108.818-196.09,194.666
	c104.466,68.001,229.155,107.542,363.094,107.542C1547.536,1530.006,1592.207,1525.343,1635.38,1516.549z"/>
<linearGradient id="SVGID_3_" gradientUnits="userSpaceOnUse" x1="-1704.7002" y1="-1285.6992" x2="-1704.7002" y2="47.2295" gradientTransform="matrix(0 1 -1 0 882.5371 2461.7539)">
	<stop  offset="0" style="stop-color:#FFFFFF"/>
	<stop  offset="1" style="stop-color:#D1D3D4"/>
</linearGradient>
<path fill="url(#SVGID_3_)" d="M1138.688,1033.204c-24.121-51.523-37.628-109.01-37.628-169.665
	c0-221.308,179.409-400.709,400.712-400.709s400.709,179.402,400.709,400.71c0,60.652-13.59,118.089-37.729,169.596
	c-16.369,34.936-37.547,67.168-62.811,95.731l188.159,188.164c25.69-27.653,49.033-57.517,69.773-89.231
	c68.493-104.698,108.362-229.805,108.362-364.26c0-368.082-298.383-666.464-666.465-666.464
	c-368.081,0-666.464,298.383-666.464,666.463c0,134.457,39.851,259.588,108.335,364.298
	C994.417,1150.203,1060.939,1083.814,1138.688,1033.204z"/>
<linearGradient id="SVGID_4_" gradientUnits="userSpaceOnUse" x1="-575.6641" y1="-255.0635" x2="356.7922" y2="-1187.5198" gradientTransform="matrix(0 1 -1 0 882.5371 2461.7539)">
	<stop  offset="0" style="stop-color:#D1D3D4"/>
	<stop  offset="0.2204" style="stop-color:#E9EAEB"/>
	<stop  offset="0.4086" style="stop-color:#FFFFFF"/>
</linearGradient>
<path fill="url(#SVGID_4_)" d="M2168.236,2320.722c0-368.081-298.383-666.464-666.465-666.464
	c-133.938,0-258.619,39.54-363.08,107.536c32.007,68.361,82.718,126.218,145.585,166.927l-190.441,190.439
	c-58.637-45.453-109.476-100.485-150.193-162.732c-68.484,104.712-108.335,229.839-108.335,364.294
	c0,52.563,6.101,103.689,17.609,152.744h278.359c-19.435-47.079-30.217-98.643-30.217-152.744
	c0-174.456,111.497-322.842,267.102-377.864v530.608h267.217l0.002-530.608c155.605,55.022,267.101,203.408,267.101,377.864
	c0,115.526-48.945,219.559-127.163,292.688l188.026,188.035C2089.621,2680.165,2168.236,2509.629,2168.236,2320.722z"/>
<linearGradient id="SVGID_5_" gradientUnits="userSpaceOnUse" x1="-1085.9722" y1="-579.873" x2="-647.2925" y2="179.9425" gradientTransform="matrix(0 1 -1 0 882.5371 2461.7539)">
	<stop  offset="0" style="stop-color:#D1D3D4"/>
	<stop  offset="0.6656" style="stop-color:#FFFFFF"/>
</linearGradient>
<path fill="url(#SVGID_5_)" d="M1284.276,1928.721c-62.867-40.709-113.578-98.565-145.585-166.927
	c-24.121-51.523-37.632-109.006-37.632-169.66c0-60.653,13.502-118.145,37.619-169.67c40.188-85.848,109.905-155.096,196.09-194.666
	c10.879-4.997,22.022-9.507,33.394-13.53V939.069c-83.173,16.927-160.702,49.367-229.474,94.134
	c-77.748,50.611-144.271,117-195.045,194.633c-68.484,104.709-108.335,229.839-108.335,364.297
	c0,134.46,39.837,259.596,108.335,364.294c40.717,62.247,91.556,117.279,150.193,162.732L1284.276,1928.721z"/>
<g>
	<path fill="#F1F2F2" stroke="#F1F2F2" stroke-miterlimit="10" d="M852.964,2556.921h45.746c19.011,0,35.182,6.733,48.518,20.199
		c13.466,13.467,20.199,29.64,20.199,48.519c0,19.011-6.733,35.185-20.199,48.518c-13.336,13.466-29.507,20.199-48.518,20.199
		h-45.746V2556.921z M898.71,2671.384c12.541,0,23.3-4.422,32.279-13.269c8.976-9.109,13.466-19.933,13.466-32.477
		c0-12.541-4.49-23.3-13.466-32.279c-8.979-8.977-19.738-13.467-32.279-13.467h-22.972v91.491H898.71z"/>
	<path fill="#F1F2F2" stroke="#F1F2F2" stroke-miterlimit="10" d="M1098.521,2556.921v22.972h-68.717v34.458h68.717v22.773h-68.717
		v34.26h68.717v22.972h-91.491v-137.435H1098.521z"/>
	<path fill="#F1F2F2" stroke="#F1F2F2" stroke-miterlimit="10" d="M1178.126,2637.124c-11.09,0-20.53-3.893-28.318-11.684
		c-7.792-7.788-11.684-17.294-11.684-28.517c0-10.957,3.893-20.329,11.684-28.121c7.655-7.921,17.096-11.882,28.318-11.882h74.46
		v22.972h-74.46c-2.376,0-4.623,0.431-6.733,1.287c-2.113,0.86-3.961,2.08-5.545,3.664c-1.584,1.584-2.807,3.435-3.664,5.545
		c-0.86,2.113-1.287,4.292-1.287,6.535c0,4.753,1.649,8.847,4.951,12.277c3.298,3.435,7.392,5.149,12.278,5.149h34.26
		c11.09,0,20.527,3.896,28.318,11.684c7.921,7.791,11.882,17.229,11.882,28.318c0,10.96-3.96,20.397-11.882,28.319
		c-7.791,7.791-17.229,11.684-28.318,11.684h-74.262v-22.972h74.262c2.376,0,4.62-0.427,6.733-1.287
		c2.11-0.857,3.961-2.046,5.545-3.564c1.584-1.517,2.803-3.333,3.664-5.446c0.857-2.11,1.287-4.356,1.287-6.733
		c0-4.619-1.717-8.645-5.148-12.079c-3.302-3.432-7.328-5.149-12.08-5.149H1178.126z"/>
	<path fill="#F1F2F2" stroke="#F1F2F2" stroke-miterlimit="10" d="M1292.19,2556.921h22.774v137.435h-22.774V2556.921z"/>
	<path fill="#F1F2F2" stroke="#F1F2F2" stroke-miterlimit="10" d="M1423.284,2556.921c9.505,0,18.417,1.782,26.734,5.347
		c8.317,3.565,15.645,8.516,21.981,14.853l-16.437,16.239c-8.847-8.977-19.605-13.467-32.279-13.467
		c-12.544,0-23.368,4.49-32.478,13.467c-8.846,8.979-13.268,19.738-13.268,32.279c0,12.544,4.422,23.367,13.268,32.477
		c9.11,8.847,19.933,13.269,32.478,13.269c6.863,0,13.234-1.353,19.11-4.06c5.873-2.704,10.991-6.501,15.348-11.387v-18.813h-34.458
		v-22.773h57.429v49.112c-3.168,4.622-6.832,8.846-10.991,12.674c-4.159,3.83-8.683,7.098-13.565,9.803
		c-4.886,2.707-10.1,4.786-15.645,6.237c-5.545,1.455-11.288,2.179-17.229,2.179c-19.011,0-35.185-6.733-48.518-20.199
		c-13.466-13.333-20.199-29.507-20.199-48.518c0-18.879,6.733-35.052,20.199-48.519
		C1388.099,2563.654,1404.273,2556.921,1423.284,2556.921z"/>
	<path fill="#F1F2F2" stroke="#F1F2F2" stroke-miterlimit="10" d="M1520.32,2556.723l91.49,82.382v-82.382h22.971v137.435v-0.198
		v0.396l-91.688-82.382v82.184h-22.773V2556.723z"/>
</g>
</svg>
